# xmcd
#
# Track frame offsets:
#	150
#	25787
#	44457
#	66040
#	81190
#	114476
#	129566
#
# Disc length: 2131 seconds
#
# Revision: 2
# Processed by: cddbd v1.5.2PL0 Copyright (c) Steve Scherf et al.
# Submitted via: audiograbber 1.83.01
#
DISCID=56085107
DTITLE=Golden Earring - Complete Studio Recordings [CD 07) - Seven Tears [remas
DTITLE=tered 2017]
DYEAR=1971
DGENRE=Rock
TTITLE0=Silver Ships
TTITLE1=The Road Swallowed Her Name
TTITLE2=Hope
TTITLE3=Don't Worry
TTITLE4=She Flies On Strange Wings
TTITLE5=This Is The Other Side Of Life
TTITLE6=You're Better Off Free
EXTD=
EXTT0=
EXTT1=
EXTT2=
EXTT3=
EXTT4=
EXTT5=
EXTT6=
PLAYORDER=
